<mxfile host="app.diagrams.net" modified="2022-11-14T00:30:14.524Z" agent="5.0 (Windows NT 10.0; Win64; x64) AppleWebKit/537.36 (KHTML, like Gecko) Chrome/107.0.0.0 Safari/537.36" etag="8W8_Ph2KsBdD5rOnaLiN" version="20.5.3" type="github">
  <diagram id="prtHgNgQTEPvFCAcTncT" name="Page-1">
    <mxGraphModel dx="1752" dy="900" grid="1" gridSize="10" guides="1" tooltips="1" connect="1" arrows="1" fold="1" page="1" pageScale="1" pageWidth="827" pageHeight="1169" math="0" shadow="0">
      <root>
        <mxCell id="0" />
        <mxCell id="1" parent="0" />
        <mxCell id="AxCdasjYxFshphXnv48H-15" style="edgeStyle=orthogonalEdgeStyle;rounded=0;orthogonalLoop=1;jettySize=auto;html=1;exitX=0;exitY=0.5;exitDx=0;exitDy=0;" edge="1" parent="1" source="AxCdasjYxFshphXnv48H-3" target="AxCdasjYxFshphXnv48H-7">
          <mxGeometry relative="1" as="geometry" />
        </mxCell>
        <mxCell id="AxCdasjYxFshphXnv48H-16" style="edgeStyle=orthogonalEdgeStyle;rounded=0;orthogonalLoop=1;jettySize=auto;html=1;exitX=0;exitY=1;exitDx=0;exitDy=0;entryX=0.25;entryY=0;entryDx=0;entryDy=0;" edge="1" parent="1" source="AxCdasjYxFshphXnv48H-3" target="AxCdasjYxFshphXnv48H-10">
          <mxGeometry relative="1" as="geometry" />
        </mxCell>
        <mxCell id="AxCdasjYxFshphXnv48H-21" style="edgeStyle=orthogonalEdgeStyle;rounded=0;orthogonalLoop=1;jettySize=auto;html=1;exitX=1;exitY=1;exitDx=0;exitDy=0;entryX=0.5;entryY=0;entryDx=0;entryDy=0;" edge="1" parent="1" source="AxCdasjYxFshphXnv48H-3" target="AxCdasjYxFshphXnv48H-12">
          <mxGeometry relative="1" as="geometry" />
        </mxCell>
        <mxCell id="AxCdasjYxFshphXnv48H-22" style="edgeStyle=orthogonalEdgeStyle;rounded=0;orthogonalLoop=1;jettySize=auto;html=1;exitX=1;exitY=0.5;exitDx=0;exitDy=0;entryX=0.5;entryY=0;entryDx=0;entryDy=0;" edge="1" parent="1" source="AxCdasjYxFshphXnv48H-3" target="AxCdasjYxFshphXnv48H-13">
          <mxGeometry relative="1" as="geometry" />
        </mxCell>
        <mxCell id="AxCdasjYxFshphXnv48H-3" value="" style="aspect=fixed;perimeter=ellipsePerimeter;html=1;align=center;shadow=0;dashed=0;spacingTop=3;image;image=img/lib/active_directory/cluster_server.svg;" vertex="1" parent="1">
          <mxGeometry x="1140" y="210" width="110" height="110" as="geometry" />
        </mxCell>
        <mxCell id="AxCdasjYxFshphXnv48H-41" style="edgeStyle=orthogonalEdgeStyle;rounded=0;orthogonalLoop=1;jettySize=auto;html=1;exitX=0.25;exitY=1;exitDx=0;exitDy=0;entryX=0.5;entryY=0;entryDx=0;entryDy=0;fontSize=18;" edge="1" parent="1" source="AxCdasjYxFshphXnv48H-7" target="AxCdasjYxFshphXnv48H-32">
          <mxGeometry relative="1" as="geometry" />
        </mxCell>
        <mxCell id="AxCdasjYxFshphXnv48H-42" style="edgeStyle=orthogonalEdgeStyle;rounded=0;orthogonalLoop=1;jettySize=auto;html=1;exitX=0.75;exitY=1;exitDx=0;exitDy=0;entryX=0.5;entryY=0;entryDx=0;entryDy=0;fontSize=18;" edge="1" parent="1" source="AxCdasjYxFshphXnv48H-7" target="AxCdasjYxFshphXnv48H-33">
          <mxGeometry relative="1" as="geometry" />
        </mxCell>
        <mxCell id="AxCdasjYxFshphXnv48H-7" value="" style="aspect=fixed;perimeter=ellipsePerimeter;html=1;align=center;shadow=0;dashed=0;spacingTop=3;image;image=img/lib/active_directory/folder.svg;" vertex="1" parent="1">
          <mxGeometry x="666" y="400" width="36.5" height="50" as="geometry" />
        </mxCell>
        <mxCell id="AxCdasjYxFshphXnv48H-43" style="edgeStyle=orthogonalEdgeStyle;rounded=0;orthogonalLoop=1;jettySize=auto;html=1;exitX=0.25;exitY=1;exitDx=0;exitDy=0;entryX=0.5;entryY=0;entryDx=0;entryDy=0;fontSize=18;" edge="1" parent="1" source="AxCdasjYxFshphXnv48H-10" target="AxCdasjYxFshphXnv48H-35">
          <mxGeometry relative="1" as="geometry" />
        </mxCell>
        <mxCell id="AxCdasjYxFshphXnv48H-44" style="edgeStyle=orthogonalEdgeStyle;rounded=0;orthogonalLoop=1;jettySize=auto;html=1;exitX=1;exitY=1;exitDx=0;exitDy=0;entryX=0.5;entryY=0;entryDx=0;entryDy=0;fontSize=18;" edge="1" parent="1" source="AxCdasjYxFshphXnv48H-10" target="AxCdasjYxFshphXnv48H-36">
          <mxGeometry relative="1" as="geometry" />
        </mxCell>
        <mxCell id="AxCdasjYxFshphXnv48H-10" value="" style="aspect=fixed;perimeter=ellipsePerimeter;html=1;align=center;shadow=0;dashed=0;spacingTop=3;image;image=img/lib/active_directory/folder.svg;" vertex="1" parent="1">
          <mxGeometry x="980" y="395" width="36.5" height="50" as="geometry" />
        </mxCell>
        <mxCell id="AxCdasjYxFshphXnv48H-45" style="edgeStyle=orthogonalEdgeStyle;rounded=0;orthogonalLoop=1;jettySize=auto;html=1;exitX=0;exitY=1;exitDx=0;exitDy=0;entryX=0.5;entryY=0;entryDx=0;entryDy=0;fontSize=18;" edge="1" parent="1" source="AxCdasjYxFshphXnv48H-12" target="AxCdasjYxFshphXnv48H-37">
          <mxGeometry relative="1" as="geometry" />
        </mxCell>
        <mxCell id="AxCdasjYxFshphXnv48H-46" style="edgeStyle=orthogonalEdgeStyle;rounded=0;orthogonalLoop=1;jettySize=auto;html=1;exitX=1;exitY=1;exitDx=0;exitDy=0;entryX=0.5;entryY=0;entryDx=0;entryDy=0;fontSize=18;" edge="1" parent="1" source="AxCdasjYxFshphXnv48H-12" target="AxCdasjYxFshphXnv48H-38">
          <mxGeometry relative="1" as="geometry" />
        </mxCell>
        <mxCell id="AxCdasjYxFshphXnv48H-12" value="" style="aspect=fixed;perimeter=ellipsePerimeter;html=1;align=center;shadow=0;dashed=0;spacingTop=3;image;image=img/lib/active_directory/folder.svg;" vertex="1" parent="1">
          <mxGeometry x="1420" y="390" width="36.5" height="50" as="geometry" />
        </mxCell>
        <mxCell id="AxCdasjYxFshphXnv48H-47" style="edgeStyle=orthogonalEdgeStyle;rounded=0;orthogonalLoop=1;jettySize=auto;html=1;exitX=0;exitY=1;exitDx=0;exitDy=0;entryX=0.5;entryY=0;entryDx=0;entryDy=0;fontSize=18;" edge="1" parent="1" source="AxCdasjYxFshphXnv48H-13" target="AxCdasjYxFshphXnv48H-39">
          <mxGeometry relative="1" as="geometry" />
        </mxCell>
        <mxCell id="AxCdasjYxFshphXnv48H-48" style="edgeStyle=orthogonalEdgeStyle;rounded=0;orthogonalLoop=1;jettySize=auto;html=1;exitX=1;exitY=1;exitDx=0;exitDy=0;entryX=0.75;entryY=0;entryDx=0;entryDy=0;fontSize=18;" edge="1" parent="1" source="AxCdasjYxFshphXnv48H-13" target="AxCdasjYxFshphXnv48H-40">
          <mxGeometry relative="1" as="geometry" />
        </mxCell>
        <mxCell id="AxCdasjYxFshphXnv48H-13" value="" style="aspect=fixed;perimeter=ellipsePerimeter;html=1;align=center;shadow=0;dashed=0;spacingTop=3;image;image=img/lib/active_directory/folder.svg;" vertex="1" parent="1">
          <mxGeometry x="1760" y="395" width="36.5" height="50" as="geometry" />
        </mxCell>
        <mxCell id="AxCdasjYxFshphXnv48H-26" value="&lt;font style=&quot;vertical-align: inherit;&quot;&gt;&lt;font style=&quot;vertical-align: inherit; font-size: 18px;&quot;&gt;Financeiro&lt;/font&gt;&lt;/font&gt;" style="text;strokeColor=none;fillColor=none;html=1;fontSize=24;fontStyle=1;verticalAlign=middle;align=center;" vertex="1" parent="1">
          <mxGeometry x="566" y="400" width="100" height="40" as="geometry" />
        </mxCell>
        <mxCell id="AxCdasjYxFshphXnv48H-27" value="Vendas" style="text;strokeColor=none;fillColor=none;html=1;fontSize=18;fontStyle=1;verticalAlign=middle;align=center;" vertex="1" parent="1">
          <mxGeometry x="890" y="400" width="100" height="40" as="geometry" />
        </mxCell>
        <mxCell id="AxCdasjYxFshphXnv48H-28" value="Desenvolvimento" style="text;strokeColor=none;fillColor=none;html=1;fontSize=18;fontStyle=1;verticalAlign=middle;align=center;" vertex="1" parent="1">
          <mxGeometry x="1300" y="400" width="100" height="40" as="geometry" />
        </mxCell>
        <mxCell id="AxCdasjYxFshphXnv48H-31" value="Suporte" style="text;strokeColor=none;fillColor=none;html=1;fontSize=18;fontStyle=1;verticalAlign=middle;align=center;" vertex="1" parent="1">
          <mxGeometry x="1654" y="395" width="100" height="40" as="geometry" />
        </mxCell>
        <mxCell id="AxCdasjYxFshphXnv48H-32" value="" style="aspect=fixed;perimeter=ellipsePerimeter;html=1;align=center;shadow=0;dashed=0;spacingTop=3;image;image=img/lib/active_directory/folder_open.svg;fontSize=18;" vertex="1" parent="1">
          <mxGeometry x="541.25" y="560" width="46" height="50" as="geometry" />
        </mxCell>
        <mxCell id="AxCdasjYxFshphXnv48H-33" value="" style="aspect=fixed;perimeter=ellipsePerimeter;html=1;align=center;shadow=0;dashed=0;spacingTop=3;image;image=img/lib/active_directory/folder_open.svg;fontSize=18;" vertex="1" parent="1">
          <mxGeometry x="781.25" y="560" width="46" height="50" as="geometry" />
        </mxCell>
        <mxCell id="AxCdasjYxFshphXnv48H-35" value="" style="aspect=fixed;perimeter=ellipsePerimeter;html=1;align=center;shadow=0;dashed=0;spacingTop=3;image;image=img/lib/active_directory/folder_open.svg;fontSize=18;" vertex="1" parent="1">
          <mxGeometry x="855.25" y="560" width="46" height="50" as="geometry" />
        </mxCell>
        <mxCell id="AxCdasjYxFshphXnv48H-36" value="" style="aspect=fixed;perimeter=ellipsePerimeter;html=1;align=center;shadow=0;dashed=0;spacingTop=3;image;image=img/lib/active_directory/folder_open.svg;fontSize=18;" vertex="1" parent="1">
          <mxGeometry x="1095.25" y="560" width="46" height="50" as="geometry" />
        </mxCell>
        <mxCell id="AxCdasjYxFshphXnv48H-37" value="" style="aspect=fixed;perimeter=ellipsePerimeter;html=1;align=center;shadow=0;dashed=0;spacingTop=3;image;image=img/lib/active_directory/folder_open.svg;fontSize=18;" vertex="1" parent="1">
          <mxGeometry x="1300" y="560" width="46" height="50" as="geometry" />
        </mxCell>
        <mxCell id="AxCdasjYxFshphXnv48H-38" value="" style="aspect=fixed;perimeter=ellipsePerimeter;html=1;align=center;shadow=0;dashed=0;spacingTop=3;image;image=img/lib/active_directory/folder_open.svg;fontSize=18;" vertex="1" parent="1">
          <mxGeometry x="1540" y="560" width="46" height="50" as="geometry" />
        </mxCell>
        <mxCell id="AxCdasjYxFshphXnv48H-39" value="" style="aspect=fixed;perimeter=ellipsePerimeter;html=1;align=center;shadow=0;dashed=0;spacingTop=3;image;image=img/lib/active_directory/folder_open.svg;fontSize=18;" vertex="1" parent="1">
          <mxGeometry x="1635.25" y="560" width="46" height="50" as="geometry" />
        </mxCell>
        <mxCell id="AxCdasjYxFshphXnv48H-40" value="" style="aspect=fixed;perimeter=ellipsePerimeter;html=1;align=center;shadow=0;dashed=0;spacingTop=3;image;image=img/lib/active_directory/folder_open.svg;fontSize=18;" vertex="1" parent="1">
          <mxGeometry x="1875.25" y="560" width="46" height="50" as="geometry" />
        </mxCell>
        <mxCell id="AxCdasjYxFshphXnv48H-49" value="Recursos &lt;br&gt;Internos" style="text;strokeColor=none;fillColor=none;html=1;fontSize=18;fontStyle=1;verticalAlign=middle;align=center;" vertex="1" parent="1">
          <mxGeometry x="514" y="620" width="100" height="40" as="geometry" />
        </mxCell>
        <mxCell id="AxCdasjYxFshphXnv48H-51" value="Recursos &lt;br&gt;Externos" style="text;strokeColor=none;fillColor=none;html=1;fontSize=18;fontStyle=1;verticalAlign=middle;align=center;" vertex="1" parent="1">
          <mxGeometry x="727.25" y="620" width="100" height="40" as="geometry" />
        </mxCell>
        <mxCell id="AxCdasjYxFshphXnv48H-52" value="Pós Vendas" style="text;strokeColor=none;fillColor=none;html=1;fontSize=18;fontStyle=1;verticalAlign=middle;align=center;" vertex="1" parent="1">
          <mxGeometry x="840" y="620" width="100" height="40" as="geometry" />
        </mxCell>
        <mxCell id="AxCdasjYxFshphXnv48H-53" value="Mobile" style="text;strokeColor=none;fillColor=none;html=1;fontSize=18;fontStyle=1;verticalAlign=middle;align=center;" vertex="1" parent="1">
          <mxGeometry x="1520" y="600" width="100" height="40" as="geometry" />
        </mxCell>
        <mxCell id="AxCdasjYxFshphXnv48H-54" value="Prospecção" style="text;strokeColor=none;fillColor=none;html=1;fontSize=18;fontStyle=1;verticalAlign=middle;align=center;" vertex="1" parent="1">
          <mxGeometry x="1080" y="610" width="100" height="40" as="geometry" />
        </mxCell>
        <mxCell id="AxCdasjYxFshphXnv48H-55" value="Web" style="text;strokeColor=none;fillColor=none;html=1;fontSize=18;fontStyle=1;verticalAlign=middle;align=center;" vertex="1" parent="1">
          <mxGeometry x="1280" y="600" width="100" height="40" as="geometry" />
        </mxCell>
        <mxCell id="AxCdasjYxFshphXnv48H-58" value="Sucesso &lt;br style=&quot;font-size: 18px;&quot;&gt;do&lt;br style=&quot;font-size: 18px;&quot;&gt;&amp;nbsp;Cliente" style="text;strokeColor=none;fillColor=none;html=1;fontSize=18;fontStyle=1;verticalAlign=middle;align=center;" vertex="1" parent="1">
          <mxGeometry x="1620" y="620" width="100" height="40" as="geometry" />
        </mxCell>
        <mxCell id="AxCdasjYxFshphXnv48H-59" value="Implantação" style="text;strokeColor=none;fillColor=none;html=1;fontSize=18;fontStyle=1;verticalAlign=middle;align=center;" vertex="1" parent="1">
          <mxGeometry x="1850" y="620" width="100" height="40" as="geometry" />
        </mxCell>
      </root>
    </mxGraphModel>
  </diagram>
</mxfile>
